<?xml version="1.0" encoding="UTF-8"?>
<svg xmlns="http://www.w3.org/2000/svg" xmlns:xlink="http://www.w3.org/1999/xlink" width="48px" height="48px" viewBox="0 0 48 48" version="1.1">
<defs>
<linearGradient id="linear0" gradientUnits="userSpaceOnUse" x1="609.77" y1="1190.114" x2="609.77" y2="21.084" gradientTransform="matrix(0.0393563,0,0,0.0391832,0.00155319,0)">
<stop offset="0" style="stop-color:rgb(12.54902%,69.019608%,21.960784%);stop-opacity:1;"/>
<stop offset="1" style="stop-color:rgb(37.647059%,83.921569%,41.568627%);stop-opacity:1;"/>
</linearGradient>
</defs>
<g id="surface1">
<path style=" stroke:none;fill-rule:nonzero;fill:rgb(87.843137%,87.843137%,87.843137%);fill-opacity:1;" d="M 41.003906 6.976562 C 36.492188 2.480469 30.492188 0.00390625 24.101562 0 C 10.925781 0 0.207031 10.667969 0.203125 23.785156 C 0.199219 27.976562 1.300781 32.066406 3.390625 35.675781 L 0 48 L 12.671875 44.691406 C 16.160156 46.589844 20.089844 47.585938 24.089844 47.589844 L 24.101562 47.589844 C 37.269531 47.589844 47.992188 36.917969 48 23.804688 C 48 17.449219 45.515625 11.472656 41.003906 6.976562 Z M 24.101562 43.570312 L 24.09375 43.570312 C 20.527344 43.570312 17.03125 42.617188 13.984375 40.816406 L 13.257812 40.386719 L 5.738281 42.347656 L 7.746094 35.054688 L 7.273438 34.304688 C 5.285156 31.160156 4.234375 27.519531 4.238281 23.785156 C 4.242188 12.886719 13.152344 4.015625 24.109375 4.015625 C 29.414062 4.019531 34.398438 6.078125 38.152344 9.816406 C 41.902344 13.550781 43.964844 18.519531 43.964844 23.800781 C 43.957031 34.703125 35.046875 43.570312 24.101562 43.570312 Z M 24.101562 43.570312 "/>
<path style=" stroke:none;fill-rule:nonzero;fill:url(#linear0);" d="M 1.097656 46.632812 L 4.335938 34.871094 C 2.339844 31.429688 1.289062 27.523438 1.289062 23.523438 C 1.292969 11.007812 11.523438 0.824219 24.09375 0.824219 C 30.195312 0.828125 35.921875 3.191406 40.226562 7.484375 C 44.535156 11.773438 46.902344 17.476562 46.902344 23.539062 C 46.894531 36.054688 36.664062 46.238281 24.097656 46.238281 C 24.09375 46.238281 24.097656 46.238281 24.097656 46.238281 L 24.085938 46.238281 C 20.269531 46.238281 16.519531 45.285156 13.1875 43.476562 Z M 1.097656 46.632812 "/>
<path style=" stroke:none;fill-rule:evenodd;fill:rgb(100%,100%,100%);fill-opacity:1;" d="M 18.195312 13.6875 C 17.753906 12.707031 17.289062 12.6875 16.867188 12.671875 C 16.523438 12.65625 16.128906 12.65625 15.734375 12.65625 C 15.34375 12.65625 14.703125 12.804688 14.160156 13.390625 C 13.621094 13.980469 12.09375 15.402344 12.09375 18.292969 C 12.09375 21.183594 14.210938 23.980469 14.503906 24.371094 C 14.800781 24.761719 18.589844 30.886719 24.589844 33.242188 C 29.574219 35.199219 30.589844 34.808594 31.671875 34.710938 C 32.753906 34.613281 35.164062 33.289062 35.65625 31.917969 C 36.148438 30.546875 36.148438 29.371094 36 29.125 C 35.851562 28.878906 35.460938 28.734375 34.867188 28.4375 C 34.277344 28.144531 31.375 26.722656 30.835938 26.527344 C 30.292969 26.332031 29.902344 26.234375 29.507812 26.820312 C 29.113281 27.410156 27.984375 28.734375 27.640625 29.125 C 27.292969 29.515625 26.949219 29.566406 26.359375 29.273438 C 25.769531 28.976562 23.867188 28.359375 21.613281 26.355469 C 19.859375 24.796875 18.671875 22.875 18.328125 22.285156 C 17.984375 21.699219 18.292969 21.378906 18.589844 21.085938 C 18.851562 20.824219 19.179688 20.402344 19.472656 20.058594 C 19.769531 19.714844 19.867188 19.46875 20.0625 19.078125 C 20.261719 18.6875 20.160156 18.34375 20.015625 18.046875 C 19.867188 17.753906 18.71875 14.847656 18.195312 13.6875 Z M 18.195312 13.6875 "/>
<path style=" stroke:none;fill-rule:nonzero;fill:rgb(100%,100%,100%);fill-opacity:1;" d="M 40.808594 6.898438 C 36.347656 2.457031 30.417969 0.0078125 24.097656 0.00390625 C 11.078125 0.00390625 0.480469 10.550781 0.476562 23.515625 C 0.472656 27.660156 1.5625 31.703125 3.628906 35.269531 L 0.277344 47.453125 L 12.800781 44.183594 C 16.25 46.058594 20.136719 47.042969 24.089844 47.046875 L 24.097656 47.046875 C 37.117188 47.046875 47.71875 36.496094 47.722656 23.535156 C 47.726562 17.25 45.269531 11.34375 40.808594 6.898438 Z M 24.097656 43.074219 L 24.089844 43.074219 C 20.566406 43.074219 17.113281 42.132812 14.097656 40.351562 L 13.378906 39.925781 L 5.949219 41.867188 L 7.933594 34.65625 L 7.464844 33.917969 C 5.5 30.804688 4.460938 27.210938 4.464844 23.515625 C 4.46875 12.742188 13.277344 3.976562 24.105469 3.976562 C 29.351562 3.976562 34.28125 6.011719 37.988281 9.707031 C 41.695312 13.402344 43.734375 18.3125 43.734375 23.53125 C 43.730469 34.308594 34.921875 43.074219 24.097656 43.074219 Z M 24.097656 43.074219 "/>
</g>
</svg>
